<svg width="21" height="13" viewBox="0 0 21 13" fill="none" xmlns="http://www.w3.org/2000/svg">
<path d="M18.5625 0.853789H13.4297V2.09933H18.5625V0.853789ZM16.0313 5.13281C15.4286 5.13281 14.9397 5.31026 14.5647 5.66517C14.1897 6.01339 13.9821 6.48883 13.942 7.09151H18.0402C17.9196 5.78571 17.25 5.13281 16.0313 5.13281ZM16.192 11.0089C16.6138 11.0089 17.0223 10.9018 17.4174 10.6875C17.8125 10.4732 18.067 10.1819 18.1808 9.81361H20.4007C19.731 11.8694 18.3013 12.8973 16.1116 12.8973C14.6786 12.8973 13.5368 12.4554 12.6864 11.5714C11.8426 10.6875 11.4208 9.52567 11.4208 8.08593C11.4208 6.69308 11.856 5.53794 12.7266 4.62053C13.6038 3.69642 14.7321 3.23437 16.1116 3.23437C17.0357 3.23437 17.8393 3.46205 18.5223 3.91741C19.2121 4.37276 19.7243 4.97209 20.0592 5.7154C20.4007 6.4587 20.5714 7.28906 20.5714 8.20647C20.5714 8.32031 20.5647 8.47767 20.5513 8.67857H13.942C13.942 9.42187 14.1328 9.99776 14.5145 10.4062C14.9029 10.808 15.4621 11.0089 16.192 11.0089ZM2.78237 10.5067H5.75558C7.12835 10.5067 7.81473 9.94754 7.81473 8.82924C7.81473 7.62388 7.14844 7.0212 5.81585 7.0212H2.78237V10.5067ZM2.78237 5.11272H5.60491C6.12723 5.11272 6.53906 4.99218 6.8404 4.75111C7.14844 4.50334 7.30246 4.12165 7.30246 3.60602C7.30246 2.64174 6.66629 2.15959 5.39397 2.15959H2.78237V5.11272ZM0 -5.126e-06H5.96652C6.54911 -5.126e-06 7.06808 0.0468699 7.52344 0.14062C7.9788 0.23437 8.40067 0.395084 8.78906 0.622763C9.18415 0.843745 9.48549 1.16517 9.69308 1.58705C9.90737 2.00892 10.0145 2.52455 10.0145 3.13392C10.0145 4.34598 9.43862 5.22656 8.28683 5.77566C9.05022 5.98995 9.62612 6.375 10.0145 6.9308C10.4029 7.4866 10.5971 8.16964 10.5971 8.97991C10.5971 9.48214 10.5134 9.94084 10.346 10.356C10.1853 10.7645 9.96429 11.1094 9.68304 11.3906C9.40848 11.6719 9.08036 11.9096 8.69866 12.1038C8.31696 12.298 7.91183 12.4386 7.48326 12.5257C7.05469 12.6127 6.60603 12.6562 6.13728 12.6562H0V-5.126e-06Z" fill="white"/>
</svg>
