<svg width="8" height="15" viewBox="0 0 8 15" fill="none" xmlns="http://www.w3.org/2000/svg">
<path d="M3.36 14.0483V0.000249863H4.464V14.0483H3.36ZM4.048 12.8483C3.22667 12.8483 2.512 12.6989 1.904 12.4002C1.296 12.1016 0.826666 11.6856 0.495999 11.1522C0.165332 10.6189 -1.19209e-06 10.0002 -1.19209e-06 9.29625H1.408C1.408 9.73358 1.50933 10.1389 1.712 10.5122C1.91467 10.8749 2.208 11.1682 2.592 11.3922C2.98667 11.6056 3.472 11.7122 4.048 11.7122C4.54933 11.7122 4.976 11.6322 5.328 11.4722C5.69067 11.3016 5.96267 11.0722 6.144 10.7842C6.336 10.4962 6.432 10.1709 6.432 9.80825C6.432 9.37092 6.336 9.01892 6.144 8.75225C5.952 8.47492 5.696 8.25092 5.376 8.08025C5.056 7.90958 4.688 7.76025 4.272 7.63225C3.856 7.49358 3.41333 7.34425 2.944 7.18425C2.06933 6.88558 1.424 6.51758 1.008 6.08025C0.591999 5.63225 0.383999 5.05092 0.383999 4.33625C0.383999 3.72825 0.522666 3.19492 0.799999 2.73625C1.088 2.27758 1.49333 1.92025 2.016 1.66425C2.54933 1.39758 3.17867 1.26425 3.904 1.26425C4.61867 1.26425 5.23733 1.39758 5.76 1.66425C6.29333 1.93092 6.70933 2.29892 7.008 2.76825C7.30667 3.22692 7.456 3.76025 7.456 4.36825H6.048C6.048 4.05892 5.968 3.75492 5.808 3.45625C5.648 3.15758 5.40267 2.91225 5.072 2.72025C4.752 2.51758 4.34667 2.41625 3.856 2.41625C3.45067 2.40558 3.088 2.47492 2.768 2.62425C2.45867 2.76292 2.21333 2.96558 2.032 3.23225C1.86133 3.49892 1.776 3.82425 1.776 4.20825C1.776 4.57092 1.85067 4.86425 2 5.08825C2.16 5.31225 2.384 5.50425 2.672 5.66425C2.97067 5.81358 3.31733 5.95225 3.712 6.08025C4.10667 6.20825 4.544 6.35225 5.024 6.51225C5.568 6.69358 6.048 6.91758 6.464 7.18425C6.89067 7.44025 7.22133 7.77092 7.456 8.17625C7.70133 8.58158 7.824 9.09892 7.824 9.72825C7.824 10.2616 7.68 10.7682 7.392 11.2482C7.11467 11.7176 6.69867 12.1016 6.144 12.4002C5.58933 12.6989 4.89067 12.8483 4.048 12.8483Z" fill="white"/>
</svg>
