<svg width="16" height="16" viewBox="0 0 16 16" fill="none" xmlns="http://www.w3.org/2000/svg">
<path d="M10.2857 13.7815C10.0045 12.1676 9.53571 10.5002 8.87946 8.77923H8.85938L8.83929 8.78927C8.73214 8.82945 8.58817 8.88637 8.40737 8.96003C8.22656 9.02699 7.88839 9.19106 7.39286 9.45222C6.89732 9.70668 6.43862 9.98124 6.01674 10.2759C5.59487 10.5638 5.15625 10.9455 4.70089 11.421C4.24554 11.8964 3.90067 12.392 3.66629 12.9076L3.51563 12.7971C4.74777 13.8015 6.14732 14.3038 7.71429 14.3038C8.59822 14.3038 9.45536 14.1297 10.2857 13.7815ZM8.42746 7.68436C8.28683 7.35624 8.10938 6.98458 7.89509 6.56941C5.8125 7.19217 3.55915 7.50356 1.13504 7.50356C1.12835 7.55043 1.125 7.62074 1.125 7.71449C1.125 8.54485 1.27232 9.33838 1.56696 10.0951C1.86161 10.8451 2.27679 11.5181 2.8125 12.114C3.14732 11.5181 3.55915 10.9623 4.04799 10.4466C4.54353 9.92432 5.02232 9.50579 5.48438 9.19106C5.94643 8.87633 6.3817 8.60512 6.79018 8.37744C7.20536 8.14976 7.54018 7.98905 7.79464 7.8953L8.16629 7.76472C8.19308 7.75802 8.23661 7.74798 8.29688 7.73458C8.35714 7.71449 8.40067 7.69775 8.42746 7.68436ZM7.35268 5.5549C6.54911 4.12856 5.73214 2.86293 4.90179 1.75802C3.97768 2.19329 3.1942 2.81606 2.55134 3.62632C1.90848 4.43659 1.47991 5.34731 1.26562 6.35847C3.28795 6.35847 5.31696 6.09061 7.35268 5.5549ZM14.2232 8.75914C12.817 8.35735 11.4475 8.26025 10.115 8.46784C10.6975 10.0683 11.1261 11.6386 11.4007 13.1788C12.144 12.6765 12.7634 12.0437 13.2589 11.2803C13.7545 10.5103 14.0759 9.66985 14.2232 8.75914ZM6.13728 1.31606C6.13058 1.31606 6.12388 1.31941 6.11719 1.3261C6.12388 1.31941 6.13058 1.31606 6.13728 1.31606ZM12.0636 2.77253C10.8248 1.67432 9.375 1.12521 7.71429 1.12521C7.20536 1.12521 6.68638 1.18882 6.15737 1.31606C7.0346 2.45445 7.85826 3.73347 8.62835 5.15311C9.0904 4.979 9.52567 4.77811 9.93415 4.55043C10.3426 4.31606 10.6641 4.10847 10.8984 3.92766C11.1395 3.74686 11.3605 3.55601 11.5614 3.35512C11.7623 3.15423 11.8862 3.0203 11.933 2.95333C11.9866 2.87967 12.0301 2.81941 12.0636 2.77253ZM14.3036 7.64418C14.2835 6.09061 13.7846 4.71784 12.8069 3.52588L12.7969 3.53592C12.7366 3.61628 12.673 3.69999 12.606 3.78704C12.5391 3.8674 12.3917 4.01472 12.1641 4.229C11.9431 4.44329 11.7054 4.64753 11.4509 4.84173C11.2031 5.02923 10.8683 5.24686 10.4464 5.49463C10.0313 5.7357 9.59263 5.94999 9.13058 6.13749C9.29799 6.4924 9.44531 6.81048 9.57255 7.09173C9.58594 7.12521 9.60603 7.18213 9.63281 7.26249C9.6663 7.34284 9.69308 7.39976 9.71317 7.43324C9.95424 7.39976 10.202 7.37633 10.4565 7.36293C10.7176 7.34954 10.9654 7.34284 11.1998 7.34284C11.4342 7.34284 11.6652 7.34954 11.8929 7.36293C12.1205 7.36963 12.3348 7.38302 12.5357 7.40311C12.7366 7.4165 12.9241 7.43324 13.0982 7.45333C13.279 7.47342 13.4397 7.49686 13.5804 7.52365C13.7277 7.54374 13.8516 7.56383 13.952 7.58391C14.0525 7.59731 14.1362 7.6107 14.2031 7.62409L14.3036 7.64418ZM14.394 3.84731C15.0837 5.02588 15.4286 6.31494 15.4286 7.71449C15.4286 9.11405 15.0837 10.4065 14.394 11.5917C13.7042 12.7703 12.7667 13.7045 11.5815 14.3942C10.4029 15.0839 9.11384 15.4288 7.71429 15.4288C6.31473 15.4288 5.02232 15.0839 3.83705 14.3942C2.65848 13.7045 1.72433 12.7703 1.0346 11.5917C0.344866 10.4065 0 9.11405 0 7.71449C0 6.31494 0.344866 5.02588 1.0346 3.84731C1.72433 2.66204 2.65848 1.72454 3.83705 1.03481C5.02232 0.345075 6.31473 0.000208497 7.71429 0.000208497C9.11384 0.000208497 10.4029 0.345075 11.5815 1.03481C12.7667 1.72454 13.7042 2.66204 14.394 3.84731Z" fill="white"/>
</svg>
