<svg width="16" height="16" viewBox="0 0 16 16" fill="none" xmlns="http://www.w3.org/2000/svg">
<path d="M12.5357 0.000208497C13.3326 0.000208497 14.0123 0.284807 14.5748 0.854003C15.144 1.4165 15.4286 2.09619 15.4286 2.89307V12.5359C15.4286 13.3328 15.144 14.0125 14.5748 14.575C14.0123 15.1442 13.3326 15.4288 12.5357 15.4288H10.6473V9.45222H12.6462L12.9475 7.12186H10.6473V5.63525C10.6473 5.26025 10.7243 4.979 10.8783 4.7915C11.0391 4.604 11.3471 4.51025 11.8025 4.51025L13.0279 4.50021V2.42097C12.606 2.3607 12.01 2.33057 11.24 2.33057C10.3292 2.33057 9.59933 2.59842 9.05022 3.13414C8.50781 3.66985 8.23661 4.42655 8.23661 5.40423V7.12186H6.22768V9.45222H8.23661V15.4288H2.89286C2.09598 15.4288 1.41295 15.1442 0.84375 14.575C0.28125 14.0125 0 13.3328 0 12.5359V2.89307C0 2.09619 0.28125 1.4165 0.84375 0.854003C1.41295 0.284807 2.09598 0.000208497 2.89286 0.000208497H12.5357Z" fill="white"/>
</svg>
