<svg width="17" height="18" viewBox="0 0 17 18" fill="none" xmlns="http://www.w3.org/2000/svg">
<path d="M5.29353 15.2077C5.29353 14.5381 4.74107 14.2033 3.63616 14.2033C2.57813 14.2033 2.04911 14.5515 2.04911 15.2479C2.04911 15.9242 2.625 16.2624 3.77679 16.2624C4.78795 16.2624 5.29353 15.9109 5.29353 15.2077ZM4.70089 7.62402C4.70089 7.21554 4.60045 6.87402 4.39955 6.59947C4.19866 6.32492 3.90067 6.18764 3.50558 6.18764C2.67522 6.18764 2.26004 6.67313 2.26004 7.64411C2.26004 8.54813 2.67522 9.00014 3.50558 9.00014C4.30246 9.00014 4.70089 8.54143 4.70089 7.62402ZM7.4029 4.36956V6.39858C7.16183 6.47893 6.89732 6.55259 6.60938 6.61956C6.71652 6.90751 6.77009 7.18876 6.77009 7.46331C6.77009 8.31376 6.52567 9.04032 6.03683 9.643C5.54799 10.239 4.88839 10.614 4.05804 10.768C3.79018 10.8216 3.58929 10.912 3.45536 11.0392C3.32813 11.1664 3.26451 11.3606 3.26451 11.6218C3.26451 11.8294 3.33817 12.0035 3.48549 12.1441C3.63951 12.278 3.83371 12.3852 4.06808 12.4655C4.30915 12.5392 4.57366 12.6129 4.86161 12.6865C5.14955 12.7535 5.4375 12.8372 5.72545 12.9376C6.01339 13.0381 6.27455 13.1653 6.50893 13.3193C6.75 13.4667 6.9442 13.6809 7.09152 13.9622C7.24554 14.2367 7.32254 14.5649 7.32254 14.9466C7.32254 16.9823 6.10714 18.0001 3.67634 18.0001C3.21429 18.0001 2.77902 17.9566 2.37054 17.8696C1.96205 17.7892 1.57366 17.6519 1.20536 17.4577C0.837054 17.2702 0.542411 16.9957 0.321429 16.6341C0.107143 16.2792 -7.45058e-09 15.8539 -7.45058e-09 15.3584C-7.45058e-09 14.2535 0.609375 13.5001 1.82813 13.0984V13.0582C1.37946 12.7836 1.15513 12.3617 1.15513 11.7926C1.15513 11.0626 1.36607 10.6039 1.78795 10.4164V10.3763C1.3058 10.2155 0.904018 9.85393 0.582589 9.29143C0.267857 8.72224 0.110491 8.16643 0.110491 7.62402C0.110491 6.69322 0.428571 5.91978 1.06473 5.30371C1.70089 4.68094 2.48772 4.36956 3.42522 4.36956C4.06808 4.36956 4.66406 4.52692 5.21317 4.84166C5.86942 4.84166 6.59933 4.68429 7.4029 4.36956ZM10.5971 13.2189H8.36719C8.39397 12.9176 8.40737 12.4689 8.40737 11.8729V5.75572C8.40737 5.12626 8.39397 4.69768 8.36719 4.47001H10.5971C10.5703 4.69099 10.5569 5.10617 10.5569 5.71554V11.8729C10.5569 12.4689 10.5703 12.9176 10.5971 13.2189ZM16.6339 10.989V12.9577C16.1585 13.2189 15.5759 13.3495 14.8862 13.3495C14.471 13.3495 14.1127 13.2825 13.8114 13.1486C13.51 13.0146 13.2757 12.8472 13.1083 12.6463C12.9408 12.4455 12.8069 12.1843 12.7065 11.8629C12.6127 11.5414 12.5525 11.2334 12.5257 10.9388C12.4989 10.6441 12.4855 10.2992 12.4855 9.90416V6.37849H12.5056V6.33831C12.4587 6.33831 12.3951 6.33496 12.3147 6.32826C12.2344 6.32157 12.1741 6.31822 12.1339 6.31822C11.9933 6.31822 11.7958 6.33831 11.5413 6.37849V4.47001H12.5056V3.70661C12.5056 3.34501 12.4855 3.04701 12.4453 2.81264H14.7254C14.6853 3.08719 14.6652 3.63965 14.6652 4.47001H16.3828V6.37849C16.2824 6.37849 16.135 6.37179 15.9408 6.3584C15.7533 6.34501 15.6127 6.33831 15.519 6.33831H14.6652V10.0046C14.6652 10.8818 14.9565 11.3205 15.5391 11.3205C15.9475 11.3205 16.3125 11.21 16.6339 10.989ZM10.4565 0.452147C10.7176 0.746791 10.8482 1.08831 10.8482 1.4767C10.8482 1.86509 10.7176 2.20661 10.4565 2.50126C10.1953 2.7892 9.87388 2.93317 9.49219 2.93317C9.10379 2.93317 8.77567 2.7892 8.50781 2.50126C8.23996 2.20661 8.10603 1.86509 8.10603 1.4767C8.10603 1.08161 8.23661 0.736746 8.49777 0.442103C8.76563 0.14746 9.0971 0.000138283 9.49219 0.000138283C9.88058 0.000138283 10.202 0.150808 10.4565 0.452147Z" fill="white"/>
</svg>
