<svg width="16" height="16" viewBox="0 0 16 16" fill="none" xmlns="http://www.w3.org/2000/svg">
<path d="M9.53237 9.53257C10.0346 9.03034 10.2857 8.42432 10.2857 7.71449C10.2857 7.00467 10.0346 6.39865 9.53237 5.89641C9.03013 5.39418 8.42411 5.14307 7.71429 5.14307C7.00446 5.14307 6.39844 5.39418 5.89621 5.89641C5.39397 6.39865 5.14286 7.00467 5.14286 7.71449C5.14286 8.42432 5.39397 9.03034 5.89621 9.53257C6.39844 10.0348 7.00446 10.2859 7.71429 10.2859C8.42411 10.2859 9.03013 10.0348 9.53237 9.53257ZM10.5167 4.91204C11.2868 5.68213 11.6719 6.61628 11.6719 7.71449C11.6719 8.81271 11.2868 9.74686 10.5167 10.517C9.74665 11.287 8.8125 11.6721 7.71429 11.6721C6.61607 11.6721 5.68192 11.287 4.91183 10.517C4.14174 9.74686 3.7567 8.81271 3.7567 7.71449C3.7567 6.61628 4.14174 5.68213 4.91183 4.91204C5.68192 4.14195 6.61607 3.75691 7.71429 3.75691C8.8125 3.75691 9.74665 4.14195 10.5167 4.91204ZM12.4855 2.94329C12.6663 3.12409 12.7567 3.34173 12.7567 3.59619C12.7567 3.85066 12.6663 4.06829 12.4855 4.24909C12.3047 4.4299 12.0871 4.5203 11.8326 4.5203C11.5781 4.5203 11.3605 4.4299 11.1797 4.24909C10.9989 4.06829 10.9085 3.85066 10.9085 3.59619C10.9085 3.34173 10.9989 3.12409 11.1797 2.94329C11.3605 2.76249 11.5781 2.67208 11.8326 2.67208C12.0871 2.67208 12.3047 2.76249 12.4855 2.94329ZM8.47768 1.38637C8.01563 1.38637 7.76116 1.38637 7.71429 1.38637C7.66741 1.38637 7.4096 1.38637 6.94085 1.38637C6.47879 1.37967 6.12723 1.37967 5.88616 1.38637C5.64509 1.38637 5.32031 1.39641 4.91183 1.4165C4.51004 1.4299 4.16518 1.46338 3.87723 1.51695C3.59598 1.56382 3.35826 1.62409 3.16406 1.69775C2.82924 1.83168 2.5346 2.02588 2.28013 2.28034C2.02567 2.53481 1.83147 2.82945 1.69754 3.16427C1.62388 3.35847 1.56027 3.59954 1.5067 3.88749C1.45982 4.16874 1.42634 4.5136 1.40625 4.92208C1.39286 5.32387 1.38281 5.6453 1.37612 5.88637C1.37612 6.12744 1.37612 6.48235 1.37612 6.9511C1.38281 7.41316 1.38616 7.66762 1.38616 7.71449C1.38616 7.76137 1.38281 8.01918 1.37612 8.48793C1.37612 8.94999 1.37612 9.30155 1.37612 9.54262C1.38281 9.78369 1.39286 10.1085 1.40625 10.517C1.42634 10.9187 1.45982 11.2636 1.5067 11.5515C1.56027 11.8328 1.62388 12.0705 1.69754 12.2647C1.83147 12.5995 2.02567 12.8942 2.28013 13.1486C2.5346 13.4031 2.82924 13.5973 3.16406 13.7312C3.35826 13.8049 3.59598 13.8685 3.87723 13.9221C4.16518 13.969 4.51004 14.0024 4.91183 14.0225C5.32031 14.0359 5.64509 14.046 5.88616 14.0527C6.12723 14.0527 6.47879 14.0527 6.94085 14.0527C7.4096 14.046 7.66741 14.0426 7.71429 14.0426C7.76116 14.0426 8.01563 14.046 8.47768 14.0527C8.94643 14.0527 9.30134 14.0527 9.54241 14.0527C9.78348 14.046 10.1049 14.0359 10.5067 14.0225C10.9152 14.0024 11.26 13.969 11.5413 13.9221C11.8292 13.8685 12.0703 13.8049 12.2645 13.7312C12.5993 13.5973 12.894 13.4031 13.1484 13.1486C13.4029 12.8942 13.5971 12.5995 13.731 12.2647C13.8047 12.0705 13.865 11.8328 13.9118 11.5515C13.9654 11.2636 13.9989 10.9187 14.0123 10.517C14.0324 10.1085 14.0424 9.78369 14.0424 9.54262C14.0491 9.30155 14.0491 8.94999 14.0424 8.48793C14.0424 8.01918 14.0424 7.76137 14.0424 7.71449C14.0424 7.66762 14.0424 7.41316 14.0424 6.9511C14.0491 6.48235 14.0491 6.12744 14.0424 5.88637C14.0424 5.6453 14.0324 5.32387 14.0123 4.92208C13.9989 4.5136 13.9654 4.16874 13.9118 3.88749C13.865 3.59954 13.8047 3.35847 13.731 3.16427C13.5971 2.82945 13.4029 2.53481 13.1484 2.28034C12.894 2.02588 12.5993 1.83168 12.2645 1.69775C12.0703 1.62409 11.8292 1.56382 11.5413 1.51695C11.26 1.46338 10.9152 1.4299 10.5067 1.4165C10.1049 1.39641 9.78348 1.38637 9.54241 1.38637C9.30134 1.37967 8.94643 1.37967 8.47768 1.38637ZM15.3783 4.53034C15.4118 5.11963 15.4286 6.18101 15.4286 7.71449C15.4286 9.24798 15.4118 10.3094 15.3783 10.8986C15.3114 12.2915 14.8962 13.3696 14.1328 14.133C13.3694 14.8964 12.2913 15.3116 10.8984 15.3786C10.3092 15.412 9.24777 15.4288 7.71429 15.4288C6.1808 15.4288 5.11942 15.412 4.53013 15.3786C3.13728 15.3116 2.05915 14.8964 1.29576 14.133C0.532366 13.3696 0.117188 12.2915 0.0502232 10.8986C0.0167411 10.3094 0 9.24798 0 7.71449C0 6.18101 0.0167411 5.11963 0.0502232 4.53034C0.117188 3.13749 0.532366 2.05936 1.29576 1.29597C2.05915 0.532574 3.13728 0.117396 4.53013 0.0504323C5.11942 0.0169498 6.1808 0.000208497 7.71429 0.000208497C9.24777 0.000208497 10.3092 0.0169498 10.8984 0.0504323C12.2913 0.117396 13.3694 0.532574 14.1328 1.29597C14.8962 2.05936 15.3114 3.13749 15.3783 4.53034Z" fill="white"/>
</svg>
