<svg width="18" height="16" viewBox="0 0 18 16" fill="none" xmlns="http://www.w3.org/2000/svg">
<path d="M5.99665 2.8427V14.6251C5.99665 14.7925 5.95313 14.9331 5.86607 15.0469C5.78571 15.1675 5.66518 15.2277 5.50446 15.2277C5.39063 15.2277 5.28013 15.201 5.17299 15.1474L0.502232 12.807C0.361607 12.74 0.241071 12.6295 0.140625 12.4755C0.046875 12.3148 0 12.1574 0 12.0034V0.552525C0 0.418596 0.0334821 0.304757 0.100446 0.211007C0.167411 0.117257 0.264509 0.0703816 0.391741 0.0703816C0.485491 0.0703816 0.632813 0.120605 0.833705 0.221051L5.96652 2.79248C5.98661 2.81257 5.99665 2.82931 5.99665 2.8427ZM6.63951 3.85721L12.0033 12.5559L6.63951 9.884V3.85721ZM18 4.03802V14.6251C18 14.7925 17.9531 14.9264 17.8594 15.0269C17.7656 15.134 17.6384 15.1876 17.4777 15.1876C17.317 15.1876 17.1596 15.144 17.0056 15.057L12.5759 12.8472L18 4.03802ZM17.9699 2.83266C17.9699 2.85275 17.1094 4.259 15.3884 7.05141C13.6741 9.83712 12.6696 11.4677 12.375 11.9432L8.45759 5.57485L11.7121 0.281319C11.8259 0.0938191 12 6.91414e-05 12.2344 6.91414e-05C12.3281 6.91414e-05 12.4152 0.0201585 12.4955 0.0603373L17.9297 2.77239C17.9565 2.78578 17.9699 2.80587 17.9699 2.83266Z" fill="white"/>
</svg>
