<svg width="16" height="16" viewBox="0 0 16 16" fill="none" xmlns="http://www.w3.org/2000/svg">
<path d="M11.7824 9.39195C11.7824 9.05713 11.7154 8.75244 11.5815 8.47789C11.4542 8.19664 11.2935 7.96561 11.0993 7.78481C10.9051 7.604 10.6607 7.43994 10.3661 7.29262C10.0714 7.1453 9.79353 7.03146 9.53237 6.9511C9.2779 6.87074 8.98661 6.79374 8.65848 6.72007L7.61384 6.479C7.41295 6.43213 7.26563 6.39865 7.17188 6.37856C7.07813 6.35177 6.96094 6.31159 6.82031 6.25802C6.67969 6.20445 6.57924 6.15088 6.51897 6.09731C6.45871 6.04374 6.40179 5.97342 6.34821 5.88637C6.30134 5.79932 6.2779 5.69887 6.2779 5.58503C6.2779 5.06941 6.76005 4.81159 7.72433 4.81159C8.01228 4.81159 8.27009 4.85177 8.49777 4.93213C8.72545 5.01249 8.90625 5.10958 9.04018 5.22342C9.17411 5.33057 9.30134 5.44106 9.42188 5.5549C9.54241 5.66874 9.67634 5.76583 9.82366 5.84619C9.97098 5.92655 10.1317 5.96673 10.3058 5.96673C10.6205 5.96673 10.8717 5.85958 11.0592 5.6453C11.2533 5.43101 11.3504 5.1732 11.3504 4.87186C11.3504 4.50356 11.1629 4.17208 10.7879 3.87744C10.4129 3.5761 9.9375 3.34842 9.36161 3.19441C8.78571 3.04039 8.17634 2.96338 7.53348 2.96338C7.07813 2.96338 6.63616 3.01695 6.20759 3.12409C5.77902 3.22454 5.37723 3.38191 5.00223 3.59619C4.63393 3.80378 4.33594 4.09507 4.10826 4.47007C3.88728 4.83838 3.77679 5.26695 3.77679 5.75579C3.77679 6.16427 3.8404 6.52253 3.96763 6.83057C4.09487 7.13191 4.28237 7.38302 4.53013 7.58391C4.7779 7.78481 5.04576 7.94887 5.33371 8.0761C5.62165 8.19664 5.96652 8.30378 6.3683 8.39753L7.83482 8.75914C8.4375 8.90646 8.8125 9.02699 8.95982 9.12074C9.17411 9.25467 9.28125 9.45557 9.28125 9.72342C9.28125 9.98458 9.14732 10.2022 8.87946 10.3763C8.61161 10.5437 8.26005 10.6274 7.82478 10.6274C7.48326 10.6274 7.17522 10.5739 6.90067 10.4667C6.63281 10.3596 6.41518 10.2324 6.24777 10.085C6.08705 9.93101 5.93638 9.78034 5.79576 9.63302C5.65513 9.479 5.50112 9.34842 5.33371 9.24128C5.1663 9.13414 4.98549 9.08057 4.79129 9.08057C4.45647 9.08057 4.20201 9.18101 4.0279 9.38191C3.86049 9.5828 3.77679 9.83391 3.77679 10.1353C3.77679 10.7513 4.18527 11.2803 5.00223 11.7223C5.8192 12.1576 6.79353 12.3752 7.92522 12.3752C8.41406 12.3752 8.88281 12.3149 9.33147 12.1944C9.78013 12.0672 10.1886 11.8864 10.5569 11.652C10.9319 11.4176 11.2299 11.1062 11.4509 10.7178C11.6719 10.3228 11.7824 9.88079 11.7824 9.39195ZM15.4286 11.5716C15.4286 12.6364 15.0502 13.5437 14.2935 14.2937C13.5435 15.0504 12.6362 15.4288 11.5714 15.4288C10.7009 15.4288 9.91741 15.1609 9.22098 14.6252C8.70536 14.7324 8.20313 14.7859 7.71429 14.7859C6.7567 14.7859 5.83929 14.5984 4.96205 14.2234C4.09152 13.8551 3.33817 13.3562 2.70201 12.7268C2.07254 12.0906 1.57031 11.3373 1.19531 10.4667C0.827009 9.58949 0.642857 8.67208 0.642857 7.71449C0.642857 7.22566 0.696429 6.72342 0.803571 6.2078C0.267857 5.51137 0 4.72789 0 3.85735C0 2.79262 0.375 1.88525 1.125 1.13525C1.8817 0.378557 2.79241 0.000208497 3.85714 0.000208497C4.72768 0.000208497 5.51116 0.268066 6.20759 0.80378C6.72321 0.696637 7.22545 0.643065 7.71429 0.643065C8.67188 0.643065 9.58594 0.830565 10.4565 1.20557C11.3337 1.57387 12.0871 2.0761 12.7165 2.71226C13.3527 3.34173 13.8549 4.09507 14.2232 4.97231C14.5982 5.84284 14.7857 6.75691 14.7857 7.71449C14.7857 8.20333 14.7321 8.70557 14.625 9.22119C15.1607 9.91762 15.4286 10.7011 15.4286 11.5716Z" fill="white"/>
</svg>
