<svg width="16" height="13" viewBox="0 0 16 13" fill="none" xmlns="http://www.w3.org/2000/svg">
<path d="M15.8304 1.52658C15.3817 2.18283 14.8393 2.74198 14.2031 3.20403C14.2098 3.29778 14.2132 3.43841 14.2132 3.62591C14.2132 4.49644 14.0859 5.36698 13.8315 6.23751C13.577 7.10135 13.1886 7.93171 12.6663 8.72859C12.1507 9.52546 11.5346 10.2319 10.8181 10.848C10.1016 11.4574 9.23773 11.9462 8.22657 12.3145C7.21541 12.6761 6.13394 12.8569 4.98215 12.8569C3.16742 12.8569 1.50671 12.3714 8.74326e-06 11.4005C0.234384 11.4272 0.495544 11.4406 0.783491 11.4406C2.29019 11.4406 3.63282 10.9786 4.81139 10.0545C4.10827 10.0411 3.4788 9.8268 2.923 9.41162C2.3672 8.98975 1.9855 8.45403 1.77791 7.80448C1.99889 7.83796 2.20313 7.8547 2.39063 7.8547C2.67858 7.8547 2.96318 7.81787 3.24443 7.74421C2.49443 7.59019 1.87166 7.21854 1.37612 6.62925C0.887286 6.03327 0.642866 5.34354 0.642866 4.56006V4.51988C1.09822 4.77434 1.58706 4.91162 2.10938 4.93171C1.66742 4.63707 1.31586 4.25202 1.0547 3.77658C0.793536 3.30113 0.662955 2.7855 0.662955 2.2297C0.662955 1.64042 0.810277 1.09466 1.10492 0.592425C1.91519 1.59019 2.89956 2.39042 4.05804 2.99309C5.22322 3.58908 6.46876 3.92055 7.79465 3.98751C7.74108 3.73305 7.71429 3.48528 7.71429 3.24421C7.71429 2.34689 8.02903 1.5835 8.65849 0.954031C9.29465 0.317871 10.0614 -0.00020957 10.9587 -0.00020957C11.8962 -0.00020957 12.6864 0.341308 13.3293 1.02434C14.0592 0.883719 14.7455 0.622558 15.3884 0.240862C15.1406 1.01095 14.6652 1.60693 13.9621 2.02881C14.5848 1.96184 15.2076 1.79443 15.8304 1.52658Z" fill="white"/>
</svg>
